<?xml version="1.0" encoding="UTF-8"?>
<svg width="108px" height="217px" viewBox="0 0 108 217" version="1.1" xmlns="http://www.w3.org/2000/svg" xmlns:xlink="http://www.w3.org/1999/xlink">
    <!-- Generator: Sketch 53.1 (72631) - https://sketchapp.com -->
    <title>1</title>
    <desc>Created with Sketch.</desc>
    <defs>
        <filter x="-12.0%" y="-5.7%" width="124.0%" height="111.4%" filterUnits="objectBoundingBox" id="filter-1">
            <feOffset dx="0" dy="2" in="SourceAlpha" result="shadowOffsetOuter1"></feOffset>
            <feGaussianBlur stdDeviation="2" in="shadowOffsetOuter1" result="shadowBlurOuter1"></feGaussianBlur>
            <feColorMatrix values="0 0 0 0 0   0 0 0 0 0   0 0 0 0 0  0 0 0 0.5 0" type="matrix" in="shadowBlurOuter1" result="shadowMatrixOuter1"></feColorMatrix>
            <feMerge>
                <feMergeNode in="shadowMatrixOuter1"></feMergeNode>
                <feMergeNode in="SourceGraphic"></feMergeNode>
            </feMerge>
        </filter>
        <linearGradient x1="74.7036353%" y1="3.29983773%" x2="-31.6686532%" y2="210.033815%" id="linearGradient-2">
            <stop stop-color="#B79660" offset="0.044477%"></stop>
            <stop stop-color="#D8B171" offset="20.88%"></stop>
            <stop stop-color="#F8C981" offset="51.66%"></stop>
            <stop stop-color="#9E794B" offset="99.37%"></stop>
        </linearGradient>
        <linearGradient x1="77.169908%" y1="-1.35426408%" x2="-40.1050591%" y2="226.258661%" id="linearGradient-3">
            <stop stop-color="#B79660" offset="0.044477%"></stop>
            <stop stop-color="#D8B171" offset="20.88%"></stop>
            <stop stop-color="#F8C981" offset="51.66%"></stop>
            <stop stop-color="#9E794B" offset="99.37%"></stop>
        </linearGradient>
        <linearGradient x1="767.866948%" y1="-2106.79348%" x2="-1858.07316%" y2="5822.53261%" id="linearGradient-4">
            <stop stop-color="#B79660" offset="0.044477%"></stop>
            <stop stop-color="#D8B171" offset="20.88%"></stop>
            <stop stop-color="#F8C981" offset="51.66%"></stop>
            <stop stop-color="#9E794B" offset="99.37%"></stop>
        </linearGradient>
        <linearGradient x1="748.627265%" y1="-2292.825%" x2="-1316.15015%" y2="4721.54423%" id="linearGradient-5">
            <stop stop-color="#B79660" offset="0.044477%"></stop>
            <stop stop-color="#D8B171" offset="20.88%"></stop>
            <stop stop-color="#F8C981" offset="51.66%"></stop>
            <stop stop-color="#9E794B" offset="99.37%"></stop>
        </linearGradient>
        <linearGradient x1="116.486591%" y1="-225.26904%" x2="-147.984488%" y2="903.973684%" id="linearGradient-6">
            <stop stop-color="#B79660" offset="0.044477%"></stop>
            <stop stop-color="#D8B171" offset="20.88%"></stop>
            <stop stop-color="#F8C981" offset="51.66%"></stop>
            <stop stop-color="#9E794B" offset="99.37%"></stop>
        </linearGradient>
        <linearGradient x1="222.141131%" y1="-488.398225%" x2="-986.982881%" y2="3389.06955%" id="linearGradient-7">
            <stop stop-color="#B79660" offset="0.044477%"></stop>
            <stop stop-color="#D8B171" offset="20.88%"></stop>
            <stop stop-color="#F8C981" offset="51.66%"></stop>
            <stop stop-color="#9E794B" offset="99.37%"></stop>
        </linearGradient>
        <linearGradient x1="156.865472%" y1="-103.806449%" x2="-424.54202%" y2="739.073457%" id="linearGradient-8">
            <stop stop-color="#B79660" offset="0.044477%"></stop>
            <stop stop-color="#D8B171" offset="20.88%"></stop>
            <stop stop-color="#F8C981" offset="51.66%"></stop>
            <stop stop-color="#9E794B" offset="99.37%"></stop>
        </linearGradient>
        <linearGradient x1="156.557491%" y1="-139.894674%" x2="-465.367596%" y2="892.834718%" id="linearGradient-9">
            <stop stop-color="#B79660" offset="0.044477%"></stop>
            <stop stop-color="#D8B171" offset="20.88%"></stop>
            <stop stop-color="#F8C981" offset="51.66%"></stop>
            <stop stop-color="#9E794B" offset="99.37%"></stop>
        </linearGradient>
        <linearGradient x1="144.676731%" y1="-118.703622%" x2="-478.183725%" y2="994.219677%" id="linearGradient-10">
            <stop stop-color="#B79660" offset="0.044477%"></stop>
            <stop stop-color="#D8B171" offset="20.88%"></stop>
            <stop stop-color="#F8C981" offset="51.66%"></stop>
            <stop stop-color="#9E794B" offset="99.37%"></stop>
        </linearGradient>
        <linearGradient x1="148.257%" y1="-19.1922368%" x2="-468.502513%" y2="412.953397%" id="linearGradient-11">
            <stop stop-color="#B79660" offset="0.044477%"></stop>
            <stop stop-color="#D8B171" offset="20.88%"></stop>
            <stop stop-color="#F8C981" offset="51.66%"></stop>
            <stop stop-color="#9E794B" offset="99.37%"></stop>
        </linearGradient>
        <linearGradient x1="191.921212%" y1="-83.4624976%" x2="-484.185227%" y2="540.412016%" id="linearGradient-12">
            <stop stop-color="#B79660" offset="0.044477%"></stop>
            <stop stop-color="#D8B171" offset="20.88%"></stop>
            <stop stop-color="#F8C981" offset="51.66%"></stop>
            <stop stop-color="#9E794B" offset="99.37%"></stop>
        </linearGradient>
        <linearGradient x1="113.290502%" y1="-21.1828552%" x2="-128.897286%" y2="247.016063%" id="linearGradient-13">
            <stop stop-color="#B79660" offset="0.044477%"></stop>
            <stop stop-color="#D8B171" offset="20.88%"></stop>
            <stop stop-color="#F8C981" offset="51.66%"></stop>
            <stop stop-color="#9E794B" offset="99.37%"></stop>
        </linearGradient>
        <linearGradient x1="185.482315%" y1="-876.559302%" x2="-440.577055%" y2="3364.64186%" id="linearGradient-14">
            <stop stop-color="#B79660" offset="0.044477%"></stop>
            <stop stop-color="#D8B171" offset="20.88%"></stop>
            <stop stop-color="#F8C981" offset="51.66%"></stop>
            <stop stop-color="#9E794B" offset="99.37%"></stop>
        </linearGradient>
        <linearGradient x1="736.977456%" y1="-1715.15833%" x2="-2237.38807%" y2="5883.70833%" id="linearGradient-15">
            <stop stop-color="#B79660" offset="0.044477%"></stop>
            <stop stop-color="#D8B171" offset="20.88%"></stop>
            <stop stop-color="#F8C981" offset="51.66%"></stop>
            <stop stop-color="#9E794B" offset="99.37%"></stop>
        </linearGradient>
        <linearGradient x1="130.568843%" y1="-200.929308%" x2="-14.1814902%" y2="264.361084%" id="linearGradient-16">
            <stop stop-color="#B79660" offset="0.044477%"></stop>
            <stop stop-color="#D8B171" offset="20.88%"></stop>
            <stop stop-color="#F8C981" offset="51.66%"></stop>
            <stop stop-color="#9E794B" offset="100%"></stop>
        </linearGradient>
        <linearGradient x1="118.476033%" y1="-172.617966%" x2="-25.9190749%" y2="296.437458%" id="linearGradient-17">
            <stop stop-color="#B79660" offset="0.044477%"></stop>
            <stop stop-color="#D8B171" offset="20.88%"></stop>
            <stop stop-color="#F8C981" offset="51.66%"></stop>
            <stop stop-color="#9E794B" offset="99.37%"></stop>
        </linearGradient>
        <linearGradient x1="142.942019%" y1="-239.617354%" x2="-14.3536327%" y2="235.885911%" id="linearGradient-18">
            <stop stop-color="#B79660" offset="0.044477%"></stop>
            <stop stop-color="#D8B171" offset="20.88%"></stop>
            <stop stop-color="#F8C981" offset="51.66%"></stop>
            <stop stop-color="#9E794B" offset="99.37%"></stop>
        </linearGradient>
        <linearGradient x1="174.604942%" y1="-335.080069%" x2="17.3094059%" y2="140.423024%" id="linearGradient-19">
            <stop stop-color="#B79660" offset="0.044477%"></stop>
            <stop stop-color="#D8B171" offset="20.88%"></stop>
            <stop stop-color="#F8C981" offset="51.66%"></stop>
            <stop stop-color="#9E794B" offset="99.37%"></stop>
        </linearGradient>
        <linearGradient x1="160.342355%" y1="-302.069811%" x2="11.6139194%" y2="172.617667%" id="linearGradient-20">
            <stop stop-color="#B79660" offset="0.044477%"></stop>
            <stop stop-color="#D8B171" offset="20.88%"></stop>
            <stop stop-color="#F8C981" offset="51.66%"></stop>
            <stop stop-color="#9E794B" offset="99.37%"></stop>
        </linearGradient>
        <linearGradient x1="68.2566996%" y1="-280.73928%" x2="42.0602137%" y2="193.948542%" id="linearGradient-21">
            <stop stop-color="#B79660" offset="0.044477%"></stop>
            <stop stop-color="#D8B171" offset="20.88%"></stop>
            <stop stop-color="#F8C981" offset="51.66%"></stop>
            <stop stop-color="#9E794B" offset="99.37%"></stop>
        </linearGradient>
        <linearGradient x1="1245.6223%" y1="-2891.08%" x2="-2.7117603%" y2="183.846667%" id="linearGradient-22">
            <stop stop-color="#B79660" offset="0.044477%"></stop>
            <stop stop-color="#D8B171" offset="20.88%"></stop>
            <stop stop-color="#F8C981" offset="51.66%"></stop>
            <stop stop-color="#9E794B" offset="99.37%"></stop>
        </linearGradient>
        <linearGradient x1="1245.97262%" y1="-2829.34444%" x2="-30.5689794%" y2="245.57%" id="linearGradient-23">
            <stop stop-color="#B79660" offset="0.044477%"></stop>
            <stop stop-color="#D8B171" offset="20.88%"></stop>
            <stop stop-color="#F8C981" offset="51.66%"></stop>
            <stop stop-color="#9E794B" offset="99.37%"></stop>
        </linearGradient>
        <linearGradient x1="310.94054%" y1="-2778.83%" x2="27.2656758%" y2="296.072222%" id="linearGradient-24">
            <stop stop-color="#B79660" offset="0.044477%"></stop>
            <stop stop-color="#D8B171" offset="20.88%"></stop>
            <stop stop-color="#F8C981" offset="51.66%"></stop>
            <stop stop-color="#9E794B" offset="99.37%"></stop>
        </linearGradient>
        <linearGradient x1="1245.68683%" y1="-2758.81685%" x2="-77.8336375%" y2="350.648315%" id="linearGradient-25">
            <stop stop-color="#B79660" offset="0.044477%"></stop>
            <stop stop-color="#D8B171" offset="20.88%"></stop>
            <stop stop-color="#F8C981" offset="51.66%"></stop>
            <stop stop-color="#9E794B" offset="99.37%"></stop>
        </linearGradient>
        <linearGradient x1="1052.57667%" y1="-2759.98391%" x2="-85.8424096%" y2="420.975862%" id="linearGradient-26">
            <stop stop-color="#B79660" offset="0.044477%"></stop>
            <stop stop-color="#D8B171" offset="20.88%"></stop>
            <stop stop-color="#F8C981" offset="51.66%"></stop>
            <stop stop-color="#9E794B" offset="99.37%"></stop>
        </linearGradient>
        <linearGradient x1="1146.4979%" y1="-2637.22921%" x2="-122.636937%" y2="472.247191%" id="linearGradient-27">
            <stop stop-color="#B79660" offset="0.044477%"></stop>
            <stop stop-color="#D8B171" offset="20.88%"></stop>
            <stop stop-color="#F8C981" offset="51.66%"></stop>
            <stop stop-color="#9E794B" offset="99.37%"></stop>
        </linearGradient>
        <linearGradient x1="1009.37693%" y1="-2639.83448%" x2="-129.042145%" y2="541.125287%" id="linearGradient-28">
            <stop stop-color="#B79660" offset="0.044477%"></stop>
            <stop stop-color="#D8B171" offset="20.88%"></stop>
            <stop stop-color="#F8C981" offset="51.66%"></stop>
            <stop stop-color="#9E794B" offset="99.37%"></stop>
        </linearGradient>
        <linearGradient x1="1255.95493%" y1="-3084.71236%" x2="59.3438439%" y2="24.7617978%" id="linearGradient-29">
            <stop stop-color="#B79660" offset="0.044477%"></stop>
            <stop stop-color="#D8B171" offset="20.88%"></stop>
            <stop stop-color="#F8C981" offset="51.66%"></stop>
            <stop stop-color="#9E794B" offset="99.37%"></stop>
        </linearGradient>
        <linearGradient x1="1174.05811%" y1="-3098.62299%" x2="35.6415582%" y2="82.3310345%" id="linearGradient-30">
            <stop stop-color="#B79660" offset="0.044477%"></stop>
            <stop stop-color="#D8B171" offset="20.88%"></stop>
            <stop stop-color="#F8C981" offset="51.66%"></stop>
            <stop stop-color="#9E794B" offset="99.37%"></stop>
        </linearGradient>
        <linearGradient x1="1281.93083%" y1="-2969.38876%" x2="12.7912995%" y2="140.101124%" id="linearGradient-31">
            <stop stop-color="#B79660" offset="0.044477%"></stop>
            <stop stop-color="#D8B171" offset="20.88%"></stop>
            <stop stop-color="#F8C981" offset="51.66%"></stop>
            <stop stop-color="#9E794B" offset="99.37%"></stop>
        </linearGradient>
        <linearGradient x1="1239.10782%" y1="-2886.22333%" x2="-19.7402923%" y2="188.776667%" id="linearGradient-32">
            <stop stop-color="#B79660" offset="0.044477%"></stop>
            <stop stop-color="#D8B171" offset="20.88%"></stop>
            <stop stop-color="#F8C981" offset="51.66%"></stop>
            <stop stop-color="#9E794B" offset="99.37%"></stop>
        </linearGradient>
        <linearGradient x1="1441.04544%" y1="-2817.23333%" x2="-30.5309611%" y2="257.695556%" id="linearGradient-33">
            <stop stop-color="#B79660" offset="0.044477%"></stop>
            <stop stop-color="#D8B171" offset="20.88%"></stop>
            <stop stop-color="#F8C981" offset="51.66%"></stop>
            <stop stop-color="#9E794B" offset="99.37%"></stop>
        </linearGradient>
        <linearGradient x1="1246.79109%" y1="-2766.88444%" x2="-65.2167825%" y2="308.044444%" id="linearGradient-34">
            <stop stop-color="#B79660" offset="0.044477%"></stop>
            <stop stop-color="#D8B171" offset="20.88%"></stop>
            <stop stop-color="#F8C981" offset="51.66%"></stop>
            <stop stop-color="#9E794B" offset="99.37%"></stop>
        </linearGradient>
        <linearGradient x1="1120.71703%" y1="-2732.85618%" x2="-75.8975829%" y2="376.626966%" id="linearGradient-35">
            <stop stop-color="#B79660" offset="0.044477%"></stop>
            <stop stop-color="#D8B171" offset="20.88%"></stop>
            <stop stop-color="#F8C981" offset="51.66%"></stop>
            <stop stop-color="#9E794B" offset="99.37%"></stop>
        </linearGradient>
        <linearGradient x1="1354.22299%" y1="-2635.57667%" x2="-117.35449%" y2="439.352222%" id="linearGradient-36">
            <stop stop-color="#B79660" offset="0.044477%"></stop>
            <stop stop-color="#D8B171" offset="20.88%"></stop>
            <stop stop-color="#F8C981" offset="51.66%"></stop>
            <stop stop-color="#9E794B" offset="99.37%"></stop>
        </linearGradient>
        <linearGradient x1="1182.7561%" y1="-2612.56742%" x2="-140.765346%" y2="496.898876%" id="linearGradient-37">
            <stop stop-color="#B79660" offset="0.044477%"></stop>
            <stop stop-color="#D8B171" offset="20.88%"></stop>
            <stop stop-color="#F8C981" offset="51.66%"></stop>
            <stop stop-color="#9E794B" offset="99.37%"></stop>
        </linearGradient>
        <linearGradient x1="1092.64474%" y1="-2527.68%" x2="-166.168043%" y2="547.236667%" id="linearGradient-38">
            <stop stop-color="#B79660" offset="0.044477%"></stop>
            <stop stop-color="#D8B171" offset="20.88%"></stop>
            <stop stop-color="#F8C981" offset="51.66%"></stop>
            <stop stop-color="#9E794B" offset="99.37%"></stop>
        </linearGradient>
        <linearGradient x1="276.822856%" y1="-526.23543%" x2="-88.4874417%" y2="390.130132%" id="linearGradient-39">
            <stop stop-color="#B79660" offset="0.044477%"></stop>
            <stop stop-color="#D8B171" offset="20.88%"></stop>
            <stop stop-color="#F8C981" offset="51.66%"></stop>
            <stop stop-color="#9E794B" offset="99.37%"></stop>
        </linearGradient>
        <linearGradient x1="369.059218%" y1="-731.564822%" x2="-70.6893649%" y2="362.282609%" id="linearGradient-40">
            <stop stop-color="#B79660" offset="0.044477%"></stop>
            <stop stop-color="#D8B171" offset="20.88%"></stop>
            <stop stop-color="#F8C981" offset="51.66%"></stop>
            <stop stop-color="#9E794B" offset="99.37%"></stop>
        </linearGradient>
    </defs>
    <g id="Page-1" stroke="none" stroke-width="1" fill="none" fill-rule="evenodd">
        <g id="Artboard-Copy-8" transform="translate(-74.000000, -30.000000)">
            <g id="1" filter="url(#filter-1)" transform="translate(78.000000, 32.000000)">
                <g id="Group">
                    <path d="M93.2738095,31.2036145 C92.9166667,24.8343373 90.1785714,18.8740964 85.5357143,14.3162651 C80.8928571,9.75843373 74.8214286,7.07048193 68.3333333,6.71987952 C63.452381,2.45421687 57.2619048,0.11686747 50.7142857,0.11686747 C44.1666667,0.11686747 37.9761905,2.45421687 33.0952381,6.71987952 C26.6071429,7.07048193 20.5357143,9.75843373 15.8928571,14.3162651 C11.25,18.8740964 8.57142857,24.7759036 8.1547619,31.1451807 L6.96428571,32.3138554 C2.55952381,36.6379518 0.119047619,42.4228916 0.119047619,48.5 C0.119047619,54.6355422 2.55952381,60.3620482 6.96428571,64.6861446 L8.1547619,65.8548193 C8.51190476,72.2240964 11.25,78.1259036 15.8928571,82.6837349 C20.5357143,87.2415663 26.6071429,89.9295181 33.0952381,90.2801205 C37.9761905,94.5457831 44.1666667,96.8831325 50.7142857,96.8831325 C57.2619048,96.8831325 63.452381,94.5457831 68.3333333,90.2801205 C74.8214286,89.9295181 80.8928571,87.2415663 85.5357143,82.6837349 C90.1785714,78.1259036 92.9166667,72.1656627 93.2738095,65.7963855 C97.6190476,61.0048193 100,54.9277108 100,48.5 C100,42.0722892 97.6190476,35.9951807 93.2738095,31.2036145 Z M89.8809524,64.3939759 C89.8214286,76.7819277 79.5833333,86.8325301 66.9642857,86.8909639 C62.6190476,91.0981928 56.8452381,93.4355422 50.7142857,93.4355422 C44.5833333,93.4355422 38.8095238,91.0981928 34.4642857,86.8909639 C21.8452381,86.8325301 11.6071429,76.7819277 11.547619,64.3939759 L9.4047619,62.2903614 C5.6547619,58.6090361 3.57142857,53.7006024 3.57142857,48.4415663 C3.57142857,43.1825301 5.6547619,38.2740964 9.4047619,34.5927711 L11.547619,32.4891566 C11.6071429,20.1012048 21.8452381,10.0506024 34.4642857,9.99216867 C38.8095238,5.78493976 44.5833333,3.44759036 50.7142857,3.44759036 C56.8452381,3.44759036 62.6190476,5.78493976 66.9642857,9.99216867 C79.5833333,10.0506024 89.8214286,20.1012048 89.8809524,32.4891566 L89.9404762,32.5475904 C94.2261905,36.813253 96.6071429,42.4813253 96.6071429,48.4415663 C96.547619,54.5186747 94.2261905,60.1283133 89.8809524,64.3939759 Z" id="Shape" fill="url(#linearGradient-2)" fill-rule="nonzero"></path>
                    <path d="M89.1071429,33.3656627 L88.9880952,33.2487952 C88.8095238,33.073494 88.75,32.8981928 88.75,32.6644578 C88.75,20.8024096 78.9285714,11.1608434 66.8452381,11.1608434 C66.6071429,11.1608434 66.4285714,11.1024096 66.25,10.9271084 C62.0833333,6.83674699 56.6071429,4.61626506 50.7738095,4.61626506 C44.9404762,4.61626506 39.4047619,6.83674699 35.297619,10.9271084 C35.1190476,11.1024096 34.9404762,11.1608434 34.702381,11.1608434 C22.6190476,11.1608434 12.797619,20.8024096 12.797619,32.6644578 C12.797619,32.8981928 12.7380952,33.073494 12.5595238,33.2487952 L10.3571429,35.4108434 C6.78571429,38.9168675 4.82142857,43.5331325 4.82142857,48.4415663 C4.82142857,53.35 6.78571429,58.0246988 10.3571429,61.4722892 L12.5595238,63.6343373 C12.7380952,63.8096386 12.797619,63.9849398 12.797619,64.2186747 C12.797619,76.0807229 22.6190476,85.7222892 34.702381,85.7222892 C34.9404762,85.7222892 35.1190476,85.7807229 35.297619,85.9560241 C39.4642857,90.0463855 44.9404762,92.2668675 50.7738095,92.2668675 C56.6071429,92.2668675 62.1428571,90.0463855 66.25,85.9560241 C66.4285714,85.7807229 66.6071429,85.7222892 66.8452381,85.7222892 C78.9285714,85.7222892 88.75,76.0807229 88.75,64.2186747 C88.75,63.9849398 88.8095238,63.8096386 88.9880952,63.6343373 C93.1547619,59.5439759 95.4166667,54.1680723 95.4166667,48.4415663 C95.4166667,42.773494 93.2142857,37.4560241 89.1071429,33.3656627 Z M87.3809524,62.1150602 L87.3809524,62.1150602 C86.7857143,62.6993976 86.4880952,63.4590361 86.4880952,64.2771084 L86.4880952,64.2771084 C86.4880952,74.9120482 77.6785714,83.560241 66.8452381,83.560241 L66.8452381,83.560241 C66.0119048,83.560241 65.2380952,83.9108434 64.6428571,84.436747 L64.6428571,84.436747 C56.9642857,91.9746988 44.5238095,91.9746988 36.8452381,84.436747 L36.8452381,84.436747 C36.25,83.8524096 35.4761905,83.560241 34.6428571,83.560241 L34.6428571,83.560241 C23.8095238,83.560241 15,74.9120482 15,64.2771084 L15,64.2771084 C15,63.4590361 14.6428571,62.6993976 14.1071429,62.1150602 L11.9047619,59.953012 C5.41666667,53.5837349 5.41666667,43.3578313 11.9047619,36.9885542 L14.1071429,34.826506 C14.702381,34.2421687 15,33.4825301 15,32.6644578 L15,32.6644578 C15,22.0295181 23.8095238,13.3813253 34.6428571,13.3813253 L34.6428571,13.3813253 C35.4761905,13.3813253 36.25,13.0307229 36.8452381,12.5048193 L36.8452381,12.5048193 C44.5238095,4.96686747 56.9642857,4.96686747 64.6428571,12.5048193 L64.6428571,12.5048193 C65.2380952,13.0891566 66.0119048,13.3813253 66.8452381,13.3813253 L66.8452381,13.3813253 C77.6785714,13.3813253 86.4880952,22.0295181 86.4880952,32.6644578 L86.4880952,32.6644578 C86.4880952,33.4825301 86.8452381,34.2421687 87.3809524,34.826506 L87.3809524,34.826506 C95.0595238,42.3644578 95.0595238,54.5771084 87.3809524,62.1150602 Z" id="Shape" fill="url(#linearGradient-3)" fill-rule="nonzero"></path>
                    <g transform="translate(25.000000, 22.204819)" id="Path">
                        <path d="M44.6428571,46.5716867 C44.702381,46.8638554 44.7619048,47.0975904 44.7619048,47.389759 C44.7619048,47.9740964 44.5833333,48.5584337 44.3452381,49.0259036 C44.7619048,49.2012048 45.1785714,49.2596386 45.6547619,49.2596386 C45.8333333,49.2596386 45.952381,49.2596386 46.1309524,49.2012048 C46.0714286,48.2078313 45.4761905,47.2144578 44.6428571,46.5716867 Z" fill="url(#linearGradient-4)"></path>
                        <path d="M17.2619048,49.3180723 C17.202381,49.610241 17.1428571,49.8439759 17.0238095,50.1361446 C16.7857143,50.7204819 16.4285714,51.1879518 16.0119048,51.5385542 C16.3095238,51.8307229 16.7261905,52.0644578 17.1428571,52.239759 C17.2619048,52.2981928 17.4404762,52.3566265 17.5595238,52.3566265 C17.9761905,51.3048193 17.8571429,50.1945783 17.2619048,49.3180723 Z" fill="url(#linearGradient-5)"></path>
                        <path d="M7.61904762,30.6192771 C7.73809524,30.0933735 7.97619048,29.6259036 8.1547619,29.2753012 C5.5952381,28.0481928 5.23809524,25.3018072 6.01190476,23.6072289 C6.13095238,23.3150602 6.36904762,23.139759 6.60714286,22.9644578 C7.32142857,22.6138554 8.69047619,21.6789157 8.98809524,19.5168675 C9.16666667,17.5301205 8.1547619,15.8939759 6.66666667,15.1343373 C4.4047619,14.0240964 4.22619048,11.8036145 4.22619048,11.8036145 C0.952380952,13.9656627 1.01190476,16.8873494 1.07142857,17.646988 C1.36904762,20.4518072 3.75,20.8608434 4.76190476,19.7506024 C5.53571429,18.9325301 5.23809524,17.9391566 4.76190476,17.3548193 C4.22619048,16.7120482 3.27380952,16.6536145 2.67857143,16.9457831 C5,15.8355422 6.01190476,18.0560241 6.07142857,18.4066265 C6.25,19.4 5.89285714,20.1596386 5.29761905,20.6855422 C4.70238095,21.2114458 3.92857143,21.386747 3.1547619,21.3283133 C2.38095238,21.2698795 1.78571429,21.0361446 1.25,20.510241 C0.714285714,20.0427711 0.238095238,19.2246988 0.297619048,17.9975904 C-6.75293155e-14,19.0493976 0.0595238095,20.4518072 1.07142857,21.6789157 C2.08333333,22.9060241 3.21428571,23.2566265 3.92857143,23.373494 C4.16666667,23.4319277 4.3452381,23.6656627 4.28571429,23.8993976 C4.16666667,24.3668675 4.04761905,25.2433735 4.22619048,26.4120482 C4.64285714,28.8078313 6.66666667,30.1518072 7.61904762,30.6777108 C7.61904762,30.6777108 7.61904762,30.6777108 7.61904762,30.6192771 Z" fill="url(#linearGradient-6)"></path>
                        <path d="M29.8214286,7.3626506 C29.8214286,7.3626506 27.202381,5.55120482 27.2619048,1.86987952 C27.2619048,1.86987952 25.7142857,3.44759036 26.7261905,5.55120482 C27.6785714,7.53795181 29.8214286,7.3626506 29.8214286,7.3626506 Z" fill="url(#linearGradient-7)"></path>
                        <g transform="translate(13.095238, 0.000000)">
                            <path d="M8.21428571,16.0692771 C8.39285714,16.1861446 8.63095238,16.1861446 8.80952381,16.1861446 L8.80952381,16.1861446 C9.04761905,16.1861446 9.28571429,16.1277108 9.46428571,16.0692771 C9.88095238,15.9524096 10.2380952,15.660241 10.4761905,15.3096386 C10.5952381,15.1343373 10.6547619,14.9590361 10.7142857,14.7253012 C10.7738095,14.55 10.7738095,14.3162651 10.7142857,14.1409639 C10.6547619,13.7319277 10.4166667,13.3813253 10,13.2060241 C9.64285714,12.9722892 9.16666667,12.9138554 8.75,13.0891566 C8.33333333,13.2644578 7.97619048,13.673494 7.97619048,14.1993976 C7.97619048,14.0825301 7.91666667,13.9656627 7.91666667,13.7903614 C7.91666667,13.673494 7.97619048,13.4981928 8.03571429,13.3813253 C8.1547619,13.1475904 8.33333333,12.9138554 8.57142857,12.7385542 C8.80952381,12.563253 9.10714286,12.5048193 9.4047619,12.5048193 C9.70238095,12.5048193 10,12.563253 10.297619,12.6801205 C10.8333333,12.9138554 11.3095238,13.439759 11.4285714,14.0240964 C11.547619,14.6084337 11.4285714,15.2512048 11.0714286,15.7771084 C10.7142857,16.303012 10.2380952,16.6536145 9.64285714,16.7704819 C8.63095238,17.0042169 7.73809524,17.0042169 6.19047619,16.536747 C4.64285714,16.1277108 2.67857143,15.426506 1.25,13.673494 C1.25,13.673494 3.27380952,17.9391566 7.55952381,19.1078313 C10.7142857,19.9259036 13.6904762,19.8674699 13.9880952,17.8222892 L13.9880952,17.8222892 C13.9880952,17.5301205 13.9285714,17.2963855 13.8095238,17.0626506 C13.5714286,16.6536145 13.0357143,16.3614458 12.5,16.4198795 C12.2619048,16.4198795 11.9642857,16.536747 11.7857143,16.7120482 C11.6071429,16.8873494 11.4285714,17.1795181 11.4285714,17.4716867 C11.3690476,17.1795181 11.4285714,16.8289157 11.6071429,16.5951807 C11.7857143,16.303012 12.0833333,16.1277108 12.4404762,16.0692771 C12.6190476,16.0108434 12.797619,16.0108434 12.9166667,16.0692771 C13.0952381,16.0692771 13.2738095,16.1277108 13.3928571,16.1861446 C13.6904762,16.303012 13.9880952,16.536747 14.1666667,16.8289157 C14.1666667,16.8873494 14.2261905,16.8873494 14.2261905,16.9457831 C14.3452381,17.1795181 14.5238095,17.4716867 14.702381,17.646988 C15.5357143,18.4650602 17.202381,19.9259036 18.75,20.0427711 C18.75,20.0427711 15.8333333,18.6403614 15.5952381,14.4331325 C15.4761905,12.7385542 14.2261905,11.3361446 12.5595238,11.0439759 C11.9642857,10.9271084 10.952381,10.9271084 10.1190476,11.0439759 C6.19047619,11.6283133 2.85714286,10.2259036 0.476190476,6.83674699 C0.595238095,6.89518072 1.72619048,12.8554217 8.21428571,16.0692771 Z" fill="url(#linearGradient-8)"></path>
                            <path d="M27.9166667,27.4638554 C32.9761905,25.8277108 33.3333333,21.2698795 33.3333333,21.2698795 C31.8452381,21.7373494 29.5833333,21.9710843 27.9166667,21.7957831 C23.2738095,21.2698795 18.3928571,18.4650602 16.25,13.3228916 C18.9285714,22.496988 27.4404762,23.6072289 29.3452381,23.6072289 C29.5833333,24.3668675 29.5238095,25.126506 29.4047619,25.4771084 C29.047619,26.8795181 27.9166667,27.4638554 27.9166667,27.4638554 Z" fill="url(#linearGradient-9)"></path>
                            <path d="M10.7142857,9.7 C12.6785714,10.5180723 13.8095238,9.58313253 15.1785714,10.1674699 C17.202381,10.9855422 17.5595238,12.4463855 17.5595238,12.4463855 C18.0952381,12.4463855 18.452381,12.6216867 18.6904762,12.2710843 C18.8095238,12.0957831 18.9880952,11.9204819 19.1071429,11.8620482 C19.8214286,11.453012 20.4166667,11.6283133 20.4166667,11.6283133 C18.8095238,11.7451807 18.6904762,13.0891566 18.75,13.4981928 C18.9285714,14.4915663 19.6428571,15.1927711 20.5357143,15.3680723 C21.9047619,15.660241 23.2738095,14.8421687 23.5119048,13.439759 C23.6904762,12.4463855 23.2142857,11.5698795 22.4404762,11.0439759 L22.4404762,11.0439759 C22.4404762,11.0439759 22.2619048,9.05722892 18.8690476,9.34939759 C15.3571429,9.64156627 11.8452381,8.94036145 10.1785714,7.47951807 C6.19047619,4.03192771 7.5,0.23373494 7.5,0.23373494 C7.5,0.23373494 3.75,6.89518072 10.7142857,9.7 Z" fill="url(#linearGradient-10)"></path>
                            <path d="M17.8571429,14.7253012 C17.8571429,14.7253012 18.6904762,17.3548193 21.9642857,17.413253 C24.702381,17.4716867 26.547619,16.0692771 27.5,15.8939759 C28.3928571,15.7186747 28.75,15.8355422 29.2261905,16.0108434 C29.2261905,15.9524096 29.2261905,15.8355422 29.2261905,15.7771084 C29.2857143,15.426506 29.4642857,15.0174699 29.7619048,14.7253012 C30.0595238,14.4331325 30.4166667,14.2578313 30.8333333,14.1993976 C31.25,14.1409639 31.6666667,14.1993976 32.0238095,14.3746988 C32.3809524,14.55 32.6785714,14.8421687 32.797619,15.2512048 C32.9166667,15.6018072 32.9166667,16.0108434 32.7380952,16.303012 C32.8571429,15.6018072 32.3809524,15.0174699 31.8452381,14.9006024 C31.3095238,14.7253012 30.6547619,14.9006024 30.297619,15.2512048 C30.1190476,15.426506 30,15.660241 29.9404762,15.9524096 C29.8809524,16.2445783 29.8809524,16.536747 29.9404762,16.8289157 C30,17.1795181 30.1785714,17.4716867 30.4166667,17.7638554 C30.952381,18.2313253 31.4285714,18.5819277 32.4404762,18.523494 C33.8095238,18.4066265 34.9404762,17.3548193 35.0595238,16.0108434 C35.2380952,14.4915663 34.4047619,13.2644578 33.1547619,12.8554217 C33.1547619,12.8554217 31.1309524,11.9789157 28.8095238,13.0307229 C26.9047619,13.9072289 25.4166667,16.0108434 23.6309524,16.4783133 C21.1309524,17.0626506 19.2261905,16.303012 17.8571429,14.7253012 Z" fill="url(#linearGradient-11)"></path>
                            <path d="M13.6309524,24.4837349 C13.75,24.4837349 13.9285714,24.3668675 14.047619,24.3084337 L14.047619,24.3084337 C14.1666667,24.1915663 14.2857143,24.0746988 14.3452381,23.9578313 C14.5238095,23.7240964 14.5833333,23.4319277 14.5833333,23.139759 C14.5833333,23.0228916 14.5238095,22.8475904 14.4642857,22.7307229 C14.4047619,22.6138554 14.2857143,22.496988 14.2261905,22.3801205 C14.047619,22.2048193 13.75,22.0879518 13.452381,22.1463855 C13.1547619,22.2048193 12.8571429,22.3801205 12.7380952,22.6138554 C12.5595238,22.9060241 12.5595238,23.2566265 12.797619,23.5487952 C12.7380952,23.4903614 12.6785714,23.4319277 12.6190476,23.373494 C12.5595238,23.3150602 12.5,23.1981928 12.5,23.139759 C12.4404762,22.9644578 12.4404762,22.7307229 12.5,22.5554217 C12.5595238,22.3801205 12.6785714,22.2048193 12.8571429,22.0879518 C13.0357143,21.9710843 13.2142857,21.8542169 13.3928571,21.7957831 C13.8095238,21.6789157 14.2857143,21.7957831 14.5833333,22.0295181 C14.9404762,22.3216867 15.1190476,22.7307229 15.1190476,23.139759 C15.1785714,23.5487952 15.0595238,23.9578313 14.7619048,24.3084337 C14.2857143,24.8927711 13.8095238,25.2433735 12.797619,25.6524096 C11.7857143,26.0614458 10.4166667,26.5289157 8.80952381,26.1198795 C8.80952381,26.1198795 11.3690476,27.6975904 15.0595238,26.2951807 C17.1428571,25.5355422 18.3333333,24.25 17.6190476,23.0228916 C17.6190476,23.0228916 17.6190476,23.0228916 17.6190476,23.0228916 C17.5,22.8475904 17.3809524,22.7307229 17.202381,22.6722892 C16.9047619,22.5554217 16.4880952,22.6138554 16.1904762,22.8475904 C16.0714286,22.9644578 15.952381,23.139759 15.952381,23.3150602 C15.952381,23.4903614 15.952381,23.7240964 16.0714286,23.8993976 C15.8928571,23.7825301 15.7738095,23.5487952 15.7738095,23.3150602 C15.7738095,23.0813253 15.8333333,22.8475904 16.0119048,22.6722892 C16.0714286,22.5554217 16.1904762,22.496988 16.25,22.4385542 C16.3690476,22.3801205 16.4880952,22.3216867 16.547619,22.3216867 C16.7857143,22.263253 17.0238095,22.263253 17.2619048,22.3801205 C17.3214286,22.3801205 17.3214286,22.3801205 17.3809524,22.4385542 C17.5,22.496988 17.6785714,22.5554217 17.8571429,22.6138554 C18.6904762,22.7307229 20.297619,22.8475904 21.1904762,22.263253 C21.1904762,22.263253 18.9880952,22.7307229 17.0238095,20.510241 C16.25,19.6337349 14.9404762,19.4 13.8690476,19.9259036 C13.5119048,20.1012048 12.9166667,20.5686747 12.5595238,20.9192771 C10.6547619,22.9060241 8.21428571,23.5487952 5.47619048,22.6722892 C5.47619048,22.6138554 8.63095238,25.4186747 13.6309524,24.4837349 Z" fill="url(#linearGradient-12)"></path>
                        </g>
                        <path d="M42.3214286,36.9301205 C47.3809524,36.4042169 49.8214286,32.7813253 49.8214286,32.7813253 C47.797619,34.0084337 44.8809524,34.4759036 42.6190476,34.0668675 C41.7261905,35.2939759 40.297619,36.0536145 38.6904762,36.0536145 C38.3928571,36.0536145 37.797619,35.936747 37.797619,35.936747 C39.8214286,35.8783133 41.4880952,34.4759036 42.0238095,32.6644578 C41.9047619,32.3138554 41.7857143,31.9048193 41.6071429,31.4957831 C41.1904762,32.3722892 40.297619,32.9566265 39.2261905,32.9566265 C39.047619,32.9566265 38.75,32.8981928 38.75,32.8981928 C39.8809524,32.839759 40.7738095,32.0801205 41.0714286,31.086747 C41.1309524,30.9114458 41.1309524,30.7945783 41.1309524,30.6192771 C40.952381,30.2686747 40.7142857,29.976506 40.4761905,29.6259036 C40.2380952,30.210241 39.702381,30.7361446 38.9880952,30.853012 C38.8690476,30.9114458 38.5714286,30.9114458 38.5714286,30.9114458 C39.4047619,30.6777108 40,29.9180723 40,29.1 C39.702381,28.6909639 39.2857143,28.3403614 38.9285714,27.989759 C38.9285714,28.4572289 38.75,28.9246988 38.3333333,29.2753012 C38.2142857,29.3337349 38.0357143,29.5090361 38.0357143,29.5090361 C38.5714286,28.9831325 38.6904762,28.223494 38.3928571,27.5807229 C36.8452381,26.4704819 34.702381,25.6524096 31.7857143,25.6524096 C31.7857143,25.6524096 35.5952381,26.8795181 34.8214286,29.1 C34.4642857,30.210241 33.0952381,30.4439759 32.3809524,29.9180723 C29.8214286,28.1650602 27.202381,28.2819277 26.0714286,28.5156627 C24.8214286,28.7493976 23.5714286,29.1 22.5595238,28.3403614 C21.6071429,27.5807229 18.6904762,24.3668675 13.6309524,25.8277108 C11.1309524,26.5873494 10,27.8144578 9.10714286,28.8662651 C7.5,30.7945783 7.73809524,32.5475904 8.57142857,34.1253012 C9.70238095,36.1120482 12.0238095,36.6963855 13.5714286,36.3457831 C17.0833333,35.5277108 17.3214286,32.196988 17.3214286,32.196988 C17.3214286,32.196988 17.3214286,35.4692771 13.9285714,36.813253 C10.3571429,38.2156627 7.97619048,35.4108434 7.97619048,35.4108434 C8.27380952,36.5795181 8.86904762,37.5144578 9.4047619,38.2156627 C9.94047619,38.8584337 11.0714286,39.9686747 12.0833333,40.4361446 C12.3214286,40.553012 14.2261905,41.5463855 13.3333333,43.2993976 C12.9761905,43.9421687 12.202381,44.2927711 11.4285714,44.1759036 C11.4285714,44.1759036 13.2142857,43.8837349 12.9166667,42.0722892 C12.7380952,41.0204819 11.6666667,40.786747 11.6666667,40.786747 C10.297619,40.553012 9.94047619,41.663253 8.27380952,41.2542169 C6.25,40.786747 6.30952381,39.5012048 5.95238095,39.2674699 C6.25,42.3644578 8.1547619,44.0590361 10.3571429,44.8771084 C12.5,45.636747 14.3452381,44.9939759 14.3452381,45.0524096 C17.202381,47.0391566 17.7380952,49.6686747 17.7380952,49.6686747 C17.9761905,47.1560241 17.4404762,45.3445783 16.4285714,44.0590361 C15.7142857,43.1240964 15.5952381,43.2409639 15.1785714,42.2475904 C14.7619048,41.3126506 15.1190476,40.4361446 15.1785714,40.3777108 C15.1785714,40.3777108 15.1785714,40.3777108 15.1785714,40.3777108 C16.8452381,40.4361446 18.2738095,39.2674699 19.1666667,38.2740964 C21.547619,35.4692771 20.8928571,31.6710843 20.6547619,31.086747 C21.0119048,31.6126506 22.202381,35.060241 20.6547619,38.0403614 C20.6547619,38.0403614 22.3809524,38.0403614 23.0357143,38.1572289 C24.6428571,38.3909639 25.8333333,38.9753012 25.8333333,38.9753012 C25.5357143,38.5662651 25.1785714,37.9819277 25,37.5144578 C23.9880952,34.3006024 25.8928571,32.6060241 26.7857143,32.0801205 C27.6785714,31.5542169 28.6904762,31.4957831 29.7619048,31.7295181 C30.7738095,31.963253 31.9047619,32.839759 32.3214286,33.7746988 C32.4404762,34.0084337 33.6904762,36.8716867 30.7738095,38.8 C30.6547619,38.8584337 33.3333333,36.9885542 31.6666667,34.1253012 C30.952381,32.8981928 29.047619,31.963253 27.1428571,32.9566265 C25.7738095,33.6578313 24.047619,36.3457831 26.6666667,38.6246988 C29.047619,40.7283133 35.0595238,40.9036145 36.1904762,41.3710843 C36.8452381,41.663253 37.5595238,42.5981928 36.9642857,43.8253012 C36.3690476,45.0524096 35,44.8186747 35,44.8186747 C35,44.8186747 35.8928571,44.760241 36.25,43.8253012 C36.3095238,43.65 36.6666667,42.6566265 35.7142857,41.9554217 C33.9880952,40.786747 32.3809524,43.0656627 31.8452381,43.5915663 C30.8333333,44.5849398 29.3452381,44.1759036 28.6904762,43.1240964 C28.6904762,43.1240964 31.0714286,48.6753012 37.4404762,45.6951807 C38.5714286,45.1692771 39.1666667,44.6433735 41.3095238,44.8186747 C44.2261905,45.0524096 45.4761905,47.3313253 45.4761905,47.3313253 C43.0952381,40.786747 33.75,38.5662651 33.75,38.5662651 C34.2261905,38.0403614 34.4047619,37.046988 34.4047619,37.046988 C38.8095238,39.3843373 42.3214286,36.9301205 42.3214286,36.9301205 Z" fill="url(#linearGradient-13)"></path>
                        <path d="M48.5119048,34.826506 C48.5119048,34.826506 49.2261905,34.2421687 50,33.0150602 C50,33.0150602 49.9404762,35.8198795 48.5119048,38.0403614 C48.5714286,38.0403614 48.8690476,36.2289157 48.5119048,34.826506 Z" fill="url(#linearGradient-14)"></path>
                        <path d="M48.3928571,36.8716867 C48.2142857,37.1054217 48.0357143,37.2807229 47.797619,37.4560241 C47.3214286,37.8066265 46.7857143,38.0403614 46.1904762,38.1572289 C46.3095238,38.5662651 46.4880952,38.9753012 46.7857143,39.3259036 C46.9047619,39.4427711 46.9642857,39.5596386 47.0833333,39.676506 C47.9761905,38.9753012 48.3928571,37.923494 48.3928571,36.8716867 Z" fill="url(#linearGradient-15)"></path>
                    </g>
                </g>
                <g id="Group" transform="translate(12.000000, 112.000000)">
                    <path d="M46.2651163,1.75498357 C42.530172,-0.467995619 35.4217297,-0.467995619 31.6265443,1.75498357 C29.518108,2.98347207 28.3132873,4.913954 28.3132873,7.13693319 L28.3132873,34.6316758 L28.7952156,34.6316758 C30.6024467,34.6316758 32.0482316,33.2276889 32.0482316,31.4727054 L32.0482316,21.7617963 L45.9036701,21.7617963 L45.9036701,31.4727054 C45.9036701,33.2276889 47.3494549,34.6316758 49.156686,34.6316758 L49.6386143,34.6316758 L49.6386143,6.55193866 C49.3976502,4.56295728 48.1928295,2.86647317 46.2651163,1.75498357 Z M45.9036701,7.13693319 L45.9036701,18.1348302 L32.0482316,18.1348302 L32.0482316,7.13693319 C32.0482316,5.96694414 32.8916061,5.20645126 33.5542575,4.79695509 C36.0843811,3.27596933 41.8072796,3.27596933 44.3374031,4.79695509 C44.9398135,5.14795181 45.9036701,5.90844469 45.9036701,7.13693319 Z" id="Shape" fill="url(#linearGradient-16)" fill-rule="nonzero"></path>
                    <path d="M66.6265867,0.116998905 C61.4458576,0.116998905 55.9036822,2.28147864 55.9036822,6.96143483 L55.9036822,27.670241 C55.9036822,32.4671961 61.4458576,34.6316758 66.6265867,34.6316758 C71.8073159,34.6316758 76.9880451,32.4671961 76.9880451,27.670241 L76.9880451,6.96143483 C76.927804,2.22297919 71.8073159,0.116998905 66.6265867,0.116998905 Z M73.1326187,28.4307338 C72.5904494,29.9517196 70.1205669,31.0632092 66.6265867,31.0632092 C63.1326066,31.0632092 60.3012779,30.0102191 59.6988675,28.3722344 C59.6988675,28.3722344 59.6386265,28.196736 59.6386265,27.4362432 L59.5783854,6.96143483 C59.5783854,4.67995619 63.1326066,3.45146769 66.6265867,3.45146769 C70.1205669,3.45146769 73.3133418,4.62145674 73.3133418,6.96143483 L73.2531008,27.4362432 C73.2531008,28.1382366 73.1326187,28.3137349 73.1326187,28.4307338 Z" id="Shape" fill="url(#linearGradient-17)" fill-rule="nonzero"></path>
                    <path d="M19.2168907,17.1403395 L19.2168907,17.1403395 C20.7229167,15.9703505 21.6265322,14.3908653 21.6265322,12.5188828 L21.6265322,7.07843373 C21.5662912,4.913954 20.4217115,3.10047097 18.4337573,1.98898138 C16.8072493,1.05299014 14.698813,0.526495071 12.5301357,0.526495071 L0.421687258,0.526495071 L0.361446221,31.4142059 C0.361446221,33.1691895 1.8072311,34.5731763 3.61446221,34.5731763 L12.5301357,34.5731763 C15.0602592,34.5731763 17.4699007,33.9881818 19.2168907,32.9351917 C21.5060501,31.5897043 22.7108709,29.6592223 22.7108709,27.2607448 L22.7108709,22.8147864 C22.7108709,20.3578094 21.4458091,18.4273275 19.2168907,17.1403395 Z M12.4698946,30.9462103 L4.03614947,30.9462103 L4.03614947,19.0708215 L12.5301357,19.0708215 C14.3976078,19.0708215 16.0843568,19.4803176 17.2891776,20.1823111 C18.4337573,20.825805 19.0361676,21.7032968 19.0361676,22.756287 L19.0361676,27.2607448 C19.0361676,28.3137349 18.4337573,29.1327273 17.2891776,29.8347207 C16.0843568,30.5367141 14.3373668,30.9462103 12.4698946,30.9462103 Z M16.5662851,14.5663636 C15.5421875,15.2098576 14.1566437,15.5023549 12.4698946,15.5023549 L4.03614947,15.5023549 L4.03614947,4.09496166 L12.4698946,4.09496166 C14.0361616,4.09496166 15.4819465,4.44595838 16.5060441,5.0309529 C16.9879724,5.32345016 17.8915879,5.96694414 17.8915879,7.07843373 L17.8915879,12.4018839 C17.951829,13.2793757 17.4699007,14.0398686 16.5662851,14.5663636 Z" id="Shape" fill="url(#linearGradient-18)" fill-rule="nonzero"></path>
                    <path d="M19.2168907,57.5049617 L19.2168907,57.5049617 C20.7229167,56.3349726 21.6265322,54.7554874 21.6265322,52.8835049 L21.6265322,47.3845564 C21.5662912,45.2200767 20.4217115,43.4065936 18.4337573,42.2951041 C16.8072493,41.3591128 14.698813,40.8326177 12.5301357,40.8326177 L0.421687258,40.8326177 L0.361446221,71.7203286 C0.361446221,73.4753122 1.8072311,74.879299 3.61446221,74.879299 L12.5301357,74.879299 C15.0602592,74.879299 17.4699007,74.2943045 19.2168907,73.2413143 C21.5060501,71.8958269 22.7108709,69.965345 22.7108709,67.5668675 L22.7108709,63.1209091 C22.7108709,60.780931 21.5060501,58.7919496 19.2168907,57.5049617 Z M12.5301357,71.3108324 L4.03614947,71.3108324 L4.03614947,59.4354436 L12.5301357,59.4354436 C14.3976078,59.4354436 16.0843568,59.8449398 17.2891776,60.5469332 C18.4337573,61.1904272 19.0361676,62.0679189 19.0361676,63.1209091 L19.0361676,67.6253669 C19.0361676,68.6783571 18.4337573,69.4973494 17.2891776,70.1993428 C16.0843568,70.9013363 14.3373668,71.3108324 12.5301357,71.3108324 Z M16.5662851,54.9309858 C15.5421875,55.5744797 14.1566437,55.866977 12.4698946,55.866977 L4.03614947,55.866977 L4.03614947,44.4595838 L12.5301357,44.4595838 C14.0964026,44.4595838 15.5421875,44.8105805 16.6265262,45.395575 C17.1084545,45.6880723 18.01207,46.3315663 18.01207,47.4430559 L18.01207,52.766506 C17.951829,53.6439978 17.4699007,54.4044907 16.5662851,54.9309858 Z" id="Shape" fill="url(#linearGradient-19)" fill-rule="nonzero"></path>
                    <path d="M28.3132873,67.9763636 C28.3132873,69.6728478 28.9156977,71.0768346 30.1205184,72.2468237 C31.7470264,73.8263089 34.397632,74.7623001 37.2892018,74.879299 L49.5181323,74.9377985 L49.5181323,74.4113034 C49.5181323,72.6563198 48.0723474,71.252333 46.2651163,71.252333 L37.8916122,71.252333 C35.5422117,71.252333 32.710883,70.4333406 32.1084726,68.7368565 C31.8675085,68.0348631 31.9277495,62.1849179 31.9277495,60.3129354 L31.9277495,59.7279409 L49.5181323,59.7279409 L49.5181323,56.1009748 L31.9277495,56.1009748 L31.9277495,44.4595838 L46.2651163,44.4595838 C48.0723474,44.4595838 49.5181323,43.0555969 49.5181323,41.3006134 L49.5181323,40.8326177 L28.3132873,40.8326177 L28.3132873,67.9763636 Z" id="Path" fill="url(#linearGradient-20)"></path>
                    <path d="M55.9036822,40.7741183 L55.9036822,71.7203286 C55.9036822,73.4753122 57.3494671,74.879299 59.1566982,74.879299 L59.6386265,74.879299 L59.6386265,43.9330887 C59.6386265,42.1781051 58.1928416,40.7741183 56.3856105,40.7741183 L55.9036822,40.7741183 Z" id="Path" fill="url(#linearGradient-21)"></path>
                    <g transform="translate(0.000000, 80.729244)">
                        <path d="M1.32530281,2.22297919 L1.32530281,3.8024644 C1.32530281,4.67995619 1.86747214,4.913954 2.59036458,4.913954 C3.31325703,4.913954 4.15663154,4.79695509 4.39759569,4.03646221 C5.06024709,5.20645126 3.79518532,5.61594743 2.59036458,5.61594743 C1.38554385,5.61594743 0.361446221,5.14795181 0.361446221,3.86096386 L0.361446221,2.10598028 C0.361446221,0.818992333 1.44578488,0.350996714 2.59036458,0.350996714 C3.79518532,0.350996714 5.12048813,0.760492881 4.39759569,1.93048193 C4.21687258,1.28698795 3.31325703,1.05299014 2.59036458,1.05299014 C1.86747214,1.11148959 1.32530281,1.40398686 1.32530281,2.22297919 Z" id="Path" fill="url(#linearGradient-22)"></path>
                        <path d="M12.2289305,3.33446878 L9.819289,3.33446878 L9.819289,5.61594743 C9.819289,5.61594743 8.85543241,5.61594743 8.85543241,5.14795181 L8.85543241,0.350996714 C8.85543241,0.350996714 9.819289,0.350996714 9.819289,0.818992333 L9.819289,2.5739759 L12.2289305,2.5739759 L12.2289305,0.350996714 C12.2289305,0.350996714 13.1927871,0.350996714 13.1927871,0.818992333 L13.1927871,5.61594743 C13.1927871,5.61594743 12.2289305,5.61594743 12.2289305,5.14795181 L12.2289305,3.33446878 Z" id="Path" fill="url(#linearGradient-23)"></path>
                        <path d="M17.6506238,0.409496166 C17.6506238,0.409496166 18.6144804,0.409496166 18.6144804,0.877491785 L18.6144804,5.67444688 C18.6144804,5.67444688 17.6506238,5.67444688 17.6506238,5.20645126 L17.6506238,0.409496166 Z" id="Path" fill="url(#linearGradient-24)"></path>
                        <path d="M26.5060562,4.15346112 C26.5060562,4.15346112 26.4458152,3.74396495 26.4458152,3.39296824 L26.4458152,0.467995619 C26.4458152,0.467995619 27.4096718,0.467995619 27.4096718,0.935991238 L27.4096718,5.67444688 C26.3253331,5.67444688 26.0843689,5.14795181 26.0843689,5.14795181 L23.9156916,1.87198248 C23.9156916,1.87198248 23.9759327,2.28147864 23.9759327,2.63247536 L23.9759327,5.67444688 C23.9759327,5.67444688 23.0120761,5.67444688 23.0120761,5.20645126 L23.0120761,0.467995619 C23.6144864,0.467995619 24.0964147,0.467995619 24.3373789,0.877491785 L26.5060562,4.15346112 Z" id="Path" fill="url(#linearGradient-25)"></path>
                        <path d="M32.8313651,3.21746988 L32.8313651,4.85545455 L35.4819707,4.85545455 C35.4819707,4.913954 35.4819707,5.55744797 34.9398014,5.55744797 L32.710883,5.55744797 C32.710883,5.55744797 31.9277495,5.55744797 31.9277495,5.08945235 L31.9277495,0.467995619 L35.5422117,0.467995619 C35.5422117,0.467995619 35.5422117,1.16998905 35.0000424,1.16998905 L32.9518471,1.16998905 L32.9518471,2.51547645 L34.4578731,2.51547645 C35.0602834,2.51547645 35.3012476,2.39847755 35.3012476,2.39847755 C35.3012476,2.74947426 35.2410065,3.21746988 34.5783551,3.21746988 L32.8313651,3.21746988 Z" id="Path" fill="url(#linearGradient-26)"></path>
                        <path d="M41.5060744,0.350996714 C42.590413,0.350996714 43.4337875,0.526495071 43.4337875,1.2284885 C43.4337875,1.40398686 43.3735465,1.63798467 43.1928234,1.93048193 C43.1928234,1.2284885 42.3494489,1.05299014 41.5060744,1.05299014 C40.843423,1.05299014 40.4217357,1.2284885 40.4217357,1.69648412 C40.4217357,2.86647317 43.6145107,1.69648412 43.6145107,3.97796276 C43.6145107,5.0309529 42.7108951,5.55744797 41.4458333,5.55744797 C40.5422178,5.55744797 39.5181202,5.32345016 39.5181202,4.67995619 C39.5181202,4.50445783 39.5783612,4.27046002 39.7590843,4.03646221 C39.7590843,4.73845564 40.7229409,4.85545455 41.4458333,4.85545455 C42.2289668,4.85545455 42.590413,4.56295728 42.590413,4.09496166 C42.590413,2.74947426 39.3976381,3.91946331 39.3976381,1.87198248 C39.3976381,0.701993428 40.3012536,0.350996714 41.5060744,0.350996714 Z" id="Path" fill="url(#linearGradient-27)"></path>
                        <path d="M48.7952398,3.21746988 L48.7952398,4.85545455 L51.4458454,4.85545455 C51.4458454,4.913954 51.4458454,5.55744797 50.9036761,5.55744797 L48.6747578,5.55744797 C48.6747578,5.55744797 47.8916243,5.55744797 47.8916243,5.08945235 L47.8916243,0.467995619 L51.5060865,0.467995619 C51.5060865,0.467995619 51.5060865,1.16998905 50.9639172,1.16998905 L48.7952398,1.16998905 L48.7952398,2.51547645 L50.3012657,2.51547645 C50.9036761,2.51547645 51.1446403,2.39847755 51.1446403,2.39847755 C51.1446403,2.74947426 51.0843992,3.21746988 50.4217478,3.21746988 L48.7952398,3.21746988 Z" id="Path" fill="url(#linearGradient-28)"></path>
                        <g transform="translate(0.000000, 10.529901)">
                            <path d="M2.71084666,2.98347207 C3.61446221,3.50996714 3.91566739,4.62145674 4.39759569,5.26495071 C4.39759569,5.26495071 4.0963905,5.32345016 3.97590843,5.32345016 C3.73494428,5.32345016 3.31325703,5.26495071 3.07229288,4.85545455 C2.71084666,4.15346112 2.34940044,3.33446878 1.38554385,3.04197152 L1.38554385,5.32345016 C1.38554385,5.32345016 0.421687258,5.32345016 0.421687258,4.85545455 L0.421687258,0.116998905 L2.10843629,0.116998905 C3.25301599,0.116998905 4.03614947,0.409496166 4.03614947,1.40398686 L4.03614947,1.63798467 C4.03614947,2.456977 3.49398014,2.98347207 2.71084666,2.98347207 Z M1.38554385,0.877491785 L1.38554385,2.33997809 L2.16867733,2.33997809 C2.83132873,2.33997809 3.07229288,2.04748083 3.07229288,1.57948521 C3.07229288,1.05299014 2.77108769,0.877491785 2.16867733,0.877491785 L1.38554385,0.877491785 Z" id="Shape" fill="url(#linearGradient-29)" fill-rule="nonzero"></path>
                            <path d="M9.27711967,2.86647317 L9.27711967,4.50445783 L11.9277253,4.50445783 C11.9277253,4.56295728 11.9277253,5.20645126 11.385556,5.20645126 L9.1566376,5.20645126 C9.1566376,5.20645126 8.37350412,5.20645126 8.37350412,4.73845564 L8.37350412,0.116998905 L11.9879663,0.116998905 C11.9879663,0.116998905 11.9879663,0.818992333 11.445797,0.818992333 L9.39760174,0.818992333 L9.39760174,2.16447974 L10.9036277,2.16447974 C11.506038,2.16447974 11.7470022,2.04748083 11.7470022,2.04748083 C11.7470022,2.39847755 11.6867611,2.86647317 11.0241097,2.86647317 L9.27711967,2.86647317 Z" id="Path" fill="url(#linearGradient-30)"></path>
                            <path d="M17.951829,0.0584994524 C19.0361676,0.0584994524 19.8795422,0.233997809 19.8795422,0.935991238 C19.8795422,1.11148959 19.8193011,1.3454874 19.638578,1.63798467 C19.638578,0.935991238 18.7952035,0.760492881 17.951829,0.760492881 C17.2891776,0.760492881 16.8674903,0.935991238 16.8674903,1.40398686 C16.8674903,2.5739759 20.0602653,1.40398686 20.0602653,3.6854655 C20.0602653,4.73845564 19.1566497,5.26495071 17.8915879,5.26495071 C16.9879724,5.26495071 15.9638748,5.0309529 15.9638748,4.38745893 C15.9638748,4.21196057 16.0241158,3.97796276 16.2048389,3.74396495 C16.2048389,4.44595838 17.1686955,4.56295728 17.8915879,4.56295728 C18.6747214,4.56295728 19.0361676,4.27046002 19.0361676,3.8024644 C19.0361676,2.456977 15.8433927,3.62696605 15.8433927,1.57948521 C15.8433927,0.409496166 16.7470082,0.0584994524 17.951829,0.0584994524 Z" id="Path" fill="url(#linearGradient-31)"></path>
                            <path d="M26.0843689,0.877491785 L26.0843689,5.32345016 C26.0843689,5.32345016 25.1205124,5.32345016 25.1205124,4.85545455 L25.1205124,0.877491785 L24.2168968,0.877491785 C23.6144864,0.877491785 23.4940044,0.409496166 23.4940044,0.0584994524 C23.4940044,0.0584994524 23.7349685,0.175498357 24.3373789,0.175498357 L26.9277435,0.175498357 C27.4699128,0.175498357 27.771118,0.0584994524 27.771118,0.0584994524 C27.771118,0.409496166 27.7108769,0.877491785 27.0482255,0.877491785 L26.0843689,0.877491785 Z" id="Path" fill="url(#linearGradient-32)"></path>
                            <path d="M34.5181141,2.16447974 L35.1205245,4.03646221 C35.3012476,4.56295728 35.4217297,4.97245345 35.6024528,5.20645126 C35.6024528,5.20645126 35.3614886,5.26495071 35.1807655,5.26495071 C34.5181141,5.26495071 34.337391,4.67995619 34.1566679,4.15346112 L34.0361858,3.8024644 L32.1687137,3.8024644 L32.0482316,4.15346112 C31.8675085,4.67995619 31.6867854,5.26495071 31.024134,5.26495071 C30.8434109,5.26495071 30.6024467,5.20645126 30.6024467,5.20645126 C30.7229288,4.97245345 30.9036519,4.56295728 31.084375,4.03646221 L31.6867854,2.16447974 C32.1687137,0.701993428 33.0120882,0.0584994524 33.1325703,0 C33.1928113,0.0584994524 34.0361858,0.701993428 34.5181141,2.16447974 Z M32.5904009,2.33997809 L32.3494368,3.10047097 L33.7952217,3.10047097 L33.5542575,2.33997809 C33.3735344,1.75498357 33.0723292,1.11148959 33.0723292,1.11148959 C33.0120882,1.3454874 32.8313651,1.75498357 32.5904009,2.33997809 Z" id="Shape" fill="url(#linearGradient-33)" fill-rule="nonzero"></path>
                            <path d="M43.8554748,3.74396495 C43.8554748,4.79695509 42.8313772,5.38194962 41.6265564,5.38194962 C40.4217357,5.38194962 39.3976381,4.85545455 39.3976381,3.74396495 L39.3976381,0.116998905 C39.3976381,0.116998905 40.3614947,0.116998905 40.3614947,0.584994524 L40.3614947,3.6854655 C40.3614947,4.32895947 40.843423,4.67995619 41.5663154,4.67995619 C42.2892078,4.67995619 42.7711361,4.32895947 42.7711361,3.6854655 L42.7711361,0.116998905 C42.7711361,0.116998905 43.7349927,0.116998905 43.7349927,0.584994524 L43.7349927,3.74396495 L43.8554748,3.74396495 Z" id="Path" fill="url(#linearGradient-34)"></path>
                            <path d="M50.4819889,2.98347207 C51.3856044,3.50996714 51.6868096,4.62145674 52.1687379,5.26495071 C52.1687379,5.26495071 51.8675327,5.32345016 51.7470506,5.32345016 C51.5060865,5.32345016 51.0843992,5.26495071 50.8434351,4.85545455 C50.4819889,4.15346112 50.1205426,3.33446878 49.156686,3.04197152 L49.156686,5.32345016 C49.156686,5.32345016 48.1928295,5.32345016 48.1928295,4.85545455 L48.1928295,0.116998905 L49.8795785,0.116998905 C51.0241582,0.116998905 51.8072917,0.409496166 51.8072917,1.40398686 L51.8072917,1.63798467 C51.8072917,2.456977 51.2651223,2.98347207 50.4819889,2.98347207 Z M49.156686,0.877491785 L49.156686,2.33997809 L49.9398195,2.33997809 C50.6024709,2.33997809 50.8434351,2.04748083 50.8434351,1.57948521 C50.8434351,1.05299014 50.5422299,0.877491785 49.9398195,0.877491785 L49.156686,0.877491785 Z" id="Shape" fill="url(#linearGradient-35)" fill-rule="nonzero"></path>
                            <path d="M59.4579033,2.16447974 L60.0603137,4.03646221 C60.2410368,4.56295728 60.3615189,4.97245345 60.542242,5.20645126 C60.542242,5.20645126 60.3012779,5.26495071 60.1205547,5.26495071 C59.4579033,5.26495071 59.2771802,4.67995619 59.0964571,4.15346112 L58.975975,3.8024644 L57.1085029,3.8024644 L56.9880208,4.15346112 C56.8072977,4.67995619 56.6265746,5.26495071 55.9639232,5.26495071 C55.7832001,5.26495071 55.5422359,5.20645126 55.5422359,5.20645126 C55.662718,4.97245345 55.8434411,4.56295728 56.0241642,4.03646221 L56.6265746,2.16447974 C57.1085029,0.701993428 57.9518774,0.0584994524 58.0723595,0 C58.1326005,0.0584994524 58.975975,0.701993428 59.4579033,2.16447974 Z M57.5904312,2.33997809 L57.3494671,3.10047097 L58.7952519,3.10047097 L58.5542878,2.33997809 C58.3735647,1.75498357 58.0723595,1.11148959 58.0723595,1.11148959 C57.9518774,1.3454874 57.7711543,1.75498357 57.5904312,2.33997809 Z" id="Shape" fill="url(#linearGradient-36)" fill-rule="nonzero"></path>
                            <path d="M67.9518895,3.86096386 C67.9518895,3.86096386 67.8916485,3.45146769 67.8916485,3.10047097 L67.8916485,0.175498357 C67.8916485,0.175498357 68.8555051,0.175498357 68.8555051,0.643493976 L68.8555051,5.38194962 C67.7711664,5.38194962 67.5302023,4.85545455 67.5302023,4.85545455 L65.361525,1.57948521 C65.361525,1.57948521 65.421766,1.98898138 65.421766,2.33997809 L65.421766,5.38194962 C65.421766,5.38194962 64.4579094,5.38194962 64.4579094,4.913954 L64.4579094,0.175498357 C65.0603198,0.175498357 65.5422481,0.175498357 65.7832122,0.584994524 L67.9518895,3.86096386 Z" id="Path" fill="url(#linearGradient-37)"></path>
                            <path d="M75.301296,0.877491785 L75.301296,5.32345016 C75.301296,5.32345016 74.3374394,5.32345016 74.3374394,4.85545455 L74.3374394,0.877491785 L73.4338239,0.877491785 C72.8314135,0.877491785 72.7109314,0.409496166 72.7109314,0.0584994524 C72.7109314,0.0584994524 72.9518956,0.175498357 73.554306,0.175498357 L76.1446705,0.175498357 C76.6868399,0.175498357 76.9880451,0.0584994524 76.9880451,0.0584994524 C76.9880451,0.409496166 76.927804,0.877491785 76.2651526,0.877491785 L75.301296,0.877491785 Z" id="Path" fill="url(#linearGradient-38)"></path>
                        </g>
                    </g>
                    <g transform="translate(62.650678, 40.364622)" fill-rule="nonzero" id="Shape">
                        <path d="M14.2771257,3.62696605 C14.2771257,3.86096386 14.0964026,3.97796276 13.6747154,3.97796276 C12.8915819,4.38745893 12.1686894,4.56295728 11.445797,4.56295728 C11.9879663,4.27046002 12.4096536,3.8024644 12.7108588,3.27596933 C11.5662791,3.27596933 9.819289,3.39296824 7.40964753,3.6854655 C7.83133479,3.91946331 8.07229893,4.09496166 8.07229893,4.32895947 C8.07229893,4.50445783 7.89157582,4.73845564 7.59037064,5.14795181 C8.31326308,4.97245345 9.03615552,4.73845564 9.87953004,4.50445783 C10.1204942,4.32895947 10.3614583,4.21196057 10.4819404,4.21196057 C10.7229046,4.21196057 10.9638687,4.27046002 11.1445918,4.32895947 C11.385556,4.44595838 11.445797,4.56295728 11.445797,4.79695509 C11.445797,4.97245345 11.2048328,5.0309529 10.7229046,5.0309529 C10.1204942,5.14795181 9.63856589,5.26495071 9.21687863,5.44044907 C9.57832485,5.55744797 9.75904797,5.73294633 9.75904797,5.90844469 C9.75904797,6.02544359 9.75904797,6.1424425 9.69880693,6.31794085 C10.0602531,6.2594414 10.4819404,6.1424425 11.0241097,5.96694414 C11.2048328,5.84994524 11.385556,5.73294633 11.506038,5.73294633 C11.7470022,5.73294633 12.0482074,5.79144578 12.3494125,5.84994524 C12.6506177,5.90844469 12.8313408,6.08394304 12.8313408,6.31794085 C12.8313408,6.43493976 12.5903767,6.49343921 12.1084484,6.49343921 C11.445797,6.55193866 10.6024225,6.66893757 9.69880693,6.90293538 L9.69880693,8.24842278 C10.0602531,8.13142388 10.3012173,8.01442497 10.3614583,7.95592552 C10.4819404,7.83892662 10.5421814,7.66342826 10.6024225,7.370931 C10.7229046,7.54642935 10.7831456,7.66342826 10.8433866,7.83892662 C11.0241097,7.89742607 11.0843508,8.01442497 11.0843508,8.18992333 C11.0843508,8.42392114 10.8433866,8.5994195 10.3012173,8.77491785 C9.63856589,8.95041621 8.79519138,9.18441402 7.89157582,9.41841183 C7.59037064,9.59391019 7.34940649,9.65240964 7.16868338,9.65240964 C6.8674782,9.65240964 6.74699612,9.47691128 6.74699612,9.06741512 C6.74699612,8.95041621 6.80723716,8.83341731 6.92771923,8.7164184 C7.04820131,8.42392114 7.16868338,8.18992333 7.22892442,8.01442497 C7.22892442,7.83892662 7.16868338,7.72192771 7.16868338,7.60492881 C6.68675509,7.54642935 6.32530887,7.370931 6.14458576,7.07843373 C6.14458576,6.96143483 6.20482679,6.90293538 6.32530887,6.90293538 C6.50603198,6.90293538 6.74699612,6.96143483 6.92771923,7.01993428 C7.40964753,6.90293538 8.0120579,6.72743702 8.79519138,6.49343921 L8.79519138,5.96694414 C8.6747093,5.79144578 8.55422723,5.67444688 8.49398619,5.55744797 C8.07229893,5.67444688 7.65061168,5.79144578 7.16868338,5.96694414 C6.92771923,6.08394304 6.74699612,6.1424425 6.68675509,6.1424425 C6.50603198,6.1424425 6.3855499,5.96694414 6.3855499,5.61594743 C6.3855499,5.55744797 6.50603198,5.38194962 6.80723716,5.26495071 C7.04820131,5.0309529 7.16868338,4.67995619 7.22892442,4.21196057 C7.16868338,4.03646221 7.04820131,3.86096386 6.92771923,3.74396495 C4.27711361,4.27046002 2.59036458,4.67995619 1.8072311,5.0309529 C1.50602592,5.90844469 1.20482074,6.31794085 0.903615552,6.31794085 C0.481928295,6.31794085 0.301205184,6.02544359 0.301205184,5.38194962 C0.301205184,5.26495071 0.421687258,4.913954 0.662651405,4.38745893 C0.843374516,4.03646221 0.963856589,3.45146769 1.02409763,2.69097481 L1.20482074,2.69097481 C1.62650799,3.21746988 1.86747214,3.6854655 1.86747214,4.15346112 C6.02410368,2.98347207 9.51808382,2.39847755 12.2289305,2.39847755 C12.4698946,2.33997809 12.7710998,2.33997809 13.132546,2.33997809 C13.3132691,2.33997809 13.5542333,2.456977 13.7951974,2.69097481 C14.0964026,3.04197152 14.2771257,3.39296824 14.2771257,3.62696605 Z M5.60241642,5.61594743 C5.60241642,5.73294633 5.30121124,5.90844469 4.75904191,5.96694414 L4.75904191,6.55193866 C5.00000606,6.61043812 5.18072917,6.72743702 5.18072917,6.90293538 C5.18072917,7.01993428 5.00000606,7.25393209 4.69880087,7.60492881 C4.69880087,7.83892662 4.63855984,8.13142388 4.5783188,8.36542169 C5.06024709,8.07292442 5.48193435,7.66342826 5.96386265,7.13693319 C5.78313953,8.24842278 4.75904191,9.35991238 2.83132873,10.5299014 C2.53012355,10.7053998 2.2891594,10.8223987 2.10843629,10.8223987 C1.8072311,10.8223987 1.62650799,10.5884009 1.62650799,10.1204053 C1.62650799,9.9449069 1.68674903,9.827908 1.86747214,9.76940854 C2.34940044,9.53541073 2.83132873,9.30141292 3.25301599,9.00891566 C2.83132873,8.65791895 2.53012355,8.42392114 2.2891594,8.30692223 C2.9518108,8.42392114 3.37349806,8.48242059 3.73494428,8.48242059 C3.79518532,8.18992333 3.79518532,7.83892662 3.85542636,7.370931 C3.55422117,7.4879299 3.25301599,7.60492881 3.01205184,7.72192771 C2.71084666,7.89742607 2.34940044,8.01442497 1.98795422,8.01442497 L1.92771318,7.89742607 C2.04819525,7.66342826 2.71084666,7.25393209 3.91566739,6.66893757 L3.91566739,6.1424425 C3.25301599,6.31794085 2.83132873,6.37644031 2.65060562,6.37644031 C2.40964147,6.37644031 2.16867733,6.31794085 1.92771318,6.1424425 C1.8072311,6.02544359 1.68674903,5.96694414 1.68674903,5.84994524 L1.8072311,5.67444688 C1.92771318,5.67444688 2.10843629,5.73294633 2.2891594,5.73294633 C2.77108769,5.67444688 3.37349806,5.49894852 4.0963905,5.26495071 C4.27711361,5.08945235 4.45783672,4.97245345 4.63855984,4.97245345 C4.81928295,4.97245345 5.00000606,5.0309529 5.18072917,5.14795181 C5.48193435,5.32345016 5.60241642,5.44044907 5.60241642,5.61594743 Z M10.3012173,10.3544031 C10.3012173,10.5299014 10.3012173,10.7638992 10.2409763,10.9393976 C10.2409763,12.1678861 10.3012173,13.2793757 10.3012173,14.1568675 C10.3012173,15.0343593 10.1807352,15.4438554 9.93977108,15.4438554 C9.63856589,15.4438554 9.45784278,15.3268565 9.27711967,15.0928587 C9.09639656,14.8588609 8.97591449,14.6248631 8.97591449,14.3908653 C8.97591449,14.2153669 8.97591449,13.9813691 9.03615552,13.5718729 C9.03615552,11.9923877 8.97591449,10.9393976 8.91567345,10.2959036 C7.5301296,10.4129025 6.3855499,10.6469003 5.54217539,10.997897 L5.54217539,11.5243921 C5.84338057,11.4658927 6.32530887,11.2903943 7.04820131,11.0563965 C7.34940649,10.8808981 7.59037064,10.8223987 7.71085271,10.8223987 C8.13253997,10.9393976 8.37350412,11.1148959 8.37350412,11.3488938 C8.37350412,11.5243921 8.19278101,11.5828916 7.83133479,11.641391 C7.22892442,11.8168894 6.68675509,11.9338883 6.26506783,11.9923877 C6.56627301,11.8168894 6.74699612,11.6998905 6.8674782,11.641391 C6.50603198,11.7583899 6.20482679,11.8168894 6.02410368,11.8168894 C5.90362161,11.8168894 5.78313953,11.8168894 5.60241642,11.7583899 L5.60241642,12.928379 C5.90362161,12.928379 6.50603198,12.8113801 7.28916546,12.5773823 C7.5301296,12.4603834 7.71085271,12.3433844 7.83133479,12.3433844 C8.31326308,12.4603834 8.55422723,12.6358817 8.55422723,12.8113801 C8.55422723,12.9868784 8.31326308,13.1038773 7.89157582,13.2208762 C7.40964753,13.3378751 6.8674782,13.5133735 6.26506783,13.8058708 C6.62651405,13.5718729 6.80723716,13.3963746 6.92771923,13.2208762 C6.56627301,13.2793757 6.32530887,13.3378751 6.20482679,13.3378751 C6.02410368,13.3378751 5.84338057,13.2793757 5.66265746,13.2208762 C5.66265746,13.6303724 5.66265746,14.1568675 5.66265746,14.6833625 C6.02410368,14.5663636 6.32530887,14.3908653 6.68675509,14.2153669 C6.92771923,13.9813691 7.04820131,13.8643702 7.16868338,13.8643702 C7.34940649,13.8643702 7.5301296,13.9228697 7.83133479,14.098368 C8.13253997,14.2153669 8.25302204,14.3908653 8.25302204,14.6248631 C8.25302204,14.741862 8.13253997,14.8588609 7.83133479,15.0343593 C7.65061168,15.2098576 7.46988857,15.385356 7.22892442,15.5023549 C8.37350412,15.5023549 9.39760174,15.7363527 10.3012173,16.2043483 C11.0241097,16.6138445 11.445797,17.0818401 11.445797,17.6668346 C11.445797,17.9593319 11.3253149,18.1348302 11.0843508,18.1348302 C10.8433866,18.1348302 10.4216994,17.842333 9.819289,17.2573384 C8.91567345,16.4383461 8.0120579,15.9703505 7.04820131,15.7363527 C6.26506783,16.555345 5.30121124,17.198839 4.0963905,17.7253341 C3.49398014,17.9593319 3.01205184,18.0763308 2.65060562,18.0763308 C2.40964147,18.0763308 2.34940044,18.0178313 2.34940044,17.842333 C2.34940044,17.7253341 2.40964147,17.6083352 2.46988251,17.4913363 C2.59036458,17.198839 2.71084666,16.9648412 2.77108769,16.8478423 C2.77108769,17.0233406 2.83132873,17.198839 2.9518108,17.3158379 C4.27711361,17.0233406 5.36145228,16.3798467 6.14458576,15.385356 C5.84338057,15.5023549 5.42169331,15.6778532 4.87952398,15.8533516 C4.45783672,16.0288499 4.15663154,16.1458488 3.97590843,16.1458488 C3.73494428,16.1458488 3.61446221,16.0288499 3.61446221,15.7363527 C3.61446221,15.385356 3.73494428,15.0928587 4.03614947,14.8588609 L4.15663154,14.9173604 C4.15663154,15.0343593 4.21687258,15.1513582 4.33735465,15.2683571 C4.5783188,15.2098576 4.81928295,15.1513582 5.06024709,15.0343593 C4.81928295,14.8588609 4.63855984,14.5663636 4.63855984,14.2738664 C4.63855984,13.9228697 4.69880087,12.7528806 4.75904191,10.8223987 C4.69880087,10.5884009 4.5783188,10.3544031 4.51807776,10.1204053 C4.51807776,9.9449069 4.63855984,9.827908 4.81928295,9.827908 C5.30121124,10.1204053 5.60241642,10.3544031 5.60241642,10.5884009 C5.60241642,10.7053998 5.60241642,10.7638992 5.60241642,10.8808981 C6.32530887,10.471402 7.34940649,10.0619058 8.73495034,9.71090909 C8.97591449,9.59391019 9.09639656,9.47691128 9.21687863,9.47691128 C9.39760174,9.47691128 9.57832485,9.59391019 9.87953004,9.76940854 C10.1204942,9.88640745 10.3012173,10.1204053 10.3012173,10.3544031 Z M7.95181686,2.04748083 C7.95181686,2.63247536 7.77109375,2.92497262 7.40964753,2.92497262 C7.28916546,2.92497262 7.04820131,2.86647317 6.8674782,2.69097481 C6.26506783,2.69097481 5.7228985,2.63247536 5.36145228,2.5739759 C5.90362161,2.456977 6.3855499,2.28147864 6.74699612,1.98898138 C6.44579094,1.52098576 6.02410368,1.16998905 5.36145228,0.877491785 L5.36145228,0.701993428 C5.54217539,0.526495071 5.78313953,0.467995619 6.08434472,0.467995619 C6.56627301,0.467995619 6.98796027,0.643493976 7.46988857,0.99449069 C7.77109375,1.28698795 7.95181686,1.63798467 7.95181686,2.04748083 Z M7.77109375,8.89191676 C8.19278101,8.77491785 8.55422723,8.65791895 8.91567345,8.5994195 C8.79519138,8.48242059 8.73495034,8.36542169 8.73495034,8.30692223 C8.73495034,8.24842278 8.73495034,8.07292442 8.79519138,7.89742607 C8.79519138,7.54642935 8.79519138,7.370931 8.79519138,7.31243154 C8.37350412,7.42943045 7.95181686,7.60492881 7.5301296,7.72192771 C7.77109375,7.89742607 7.89157582,8.07292442 7.89157582,8.30692223 C7.89157582,8.36542169 7.83133479,8.54092004 7.77109375,8.89191676 Z M12.5903767,8.7164184 C12.5903767,9.12591457 12.4698946,9.35991238 12.1686894,9.35991238 C11.9277253,9.35991238 11.6867611,9.12591457 11.5662791,8.5994195 C11.385556,8.07292442 11.1445918,7.60492881 10.7229046,7.19543264 L10.7831456,7.07843373 C11.1445918,7.07843373 11.445797,7.19543264 11.7470022,7.370931 C12.2891715,7.78042716 12.5903767,8.24842278 12.5903767,8.7164184 Z" fill="url(#linearGradient-39)"></path>
                        <path d="M3.19277495,20.8843045 C3.37349806,21.1768018 3.55422117,21.3523001 3.73494428,21.5862979 C4.03614947,21.8787952 4.21687258,22.2297919 4.21687258,22.4637897 C4.21687258,22.6392881 4.21687258,22.9317853 4.21687258,23.2242826 C4.5783188,23.1657831 5.00000606,23.1657831 5.42169331,23.1072837 C6.80723716,22.756287 7.65061168,22.5807886 7.95181686,22.5807886 C8.13253997,22.5807886 8.31326308,22.6392881 8.49398619,22.756287 C8.73495034,22.8732859 8.85543241,22.9902848 8.85543241,23.1657831 C8.85543241,23.3997809 8.55422723,23.5752793 8.0120579,23.6922782 C7.71085271,23.7507777 7.34940649,23.926276 6.8674782,24.1602738 C6.44579094,24.3942716 6.02410368,24.6282694 5.66265746,24.8622673 C6.02410368,24.4527711 6.3855499,24.1017744 6.62651405,23.8677766 C5.90362161,23.9847755 5.48193435,24.1017744 5.36145228,24.1017744 C5.00000606,24.1017744 4.5783188,23.9847755 4.15663154,23.6922782 L4.0963905,26.1492552 C4.33735465,26.1492552 4.5783188,26.1492552 4.81928295,26.1492552 C6.50603198,25.7982585 7.46988857,25.5642607 7.77109375,25.5642607 C8.0120579,25.5642607 8.31326308,25.6227601 8.61446827,25.6812596 C8.91567345,25.739759 9.03615552,25.9152574 9.03615552,26.1492552 C9.03615552,26.3247536 8.85543241,26.383253 8.49398619,26.4417525 C7.95181686,26.5002519 7.34940649,26.7342497 6.68675509,27.0852464 C6.14458576,27.3777437 5.2409702,27.9042388 4.0963905,28.7232311 L4.0963905,29.4252245 C5.18072917,29.1327273 6.26506783,28.84023 7.34940649,28.4892333 C7.46988857,28.2552355 7.65061168,28.196736 7.77109375,28.196736 C8.0120579,28.196736 8.19278101,28.2552355 8.43374516,28.3722344 C8.73495034,28.5477327 8.85543241,28.7232311 8.85543241,28.9572289 C8.85543241,29.0742278 8.73495034,29.1912267 8.55422723,29.2497262 C8.25302204,29.3667251 7.46988857,30.0687185 6.20482679,31.3557065 C5.2409702,32.2916977 4.39759569,33.0521906 3.67470325,33.5201862 C3.13253391,33.8711829 2.53012355,34.0466813 1.86747214,34.0466813 C1.56626696,34.0466813 1.38554385,33.9881818 1.26506177,33.8126835 L1.26506177,33.6956846 C2.16867733,33.5201862 3.07229288,32.9351917 4.03614947,32.0576999 C4.45783672,31.6482037 5.30121124,30.8292114 6.50603198,29.7762212 C4.51807776,30.2442169 3.37349806,30.5952136 3.13253391,30.653713 C2.89156977,30.7707119 2.71084666,30.7707119 2.53012355,30.7707119 C2.34940044,30.7707119 2.22891836,30.7122125 2.10843629,30.5952136 C1.98795422,30.4197152 1.86747214,30.2442169 1.86747214,30.127218 C1.86747214,29.7762212 2.04819525,29.6007229 2.34940044,29.6007229 C2.53012355,29.6007229 2.71084666,29.6007229 2.9518108,29.6007229 C3.01205184,28.0797371 3.07229288,25.6812596 3.07229288,22.5222892 C3.07229288,22.2882913 3.01205184,21.9957941 2.83132873,21.7032968 C2.71084666,21.5277985 2.71084666,21.2938007 2.71084666,21.1183023 C2.71084666,20.8843045 2.77108769,20.7673056 2.89156977,20.7673056 C3.01205184,20.5333078 3.13253391,20.6503067 3.19277495,20.8843045 Z M11.1445918,20.1823111 C11.5662791,20.5333078 11.8072432,20.825805 11.8072432,21.0598028 C11.8072432,21.1768018 11.7470022,21.5277985 11.6265201,22.0542935 C11.5662791,23.0487842 11.5662791,25.1547645 11.506038,28.3137349 C11.445797,29.0742278 11.385556,29.6592223 11.2048328,30.0687185 C10.8433866,30.8877108 10.4819404,31.297207 10.1204942,31.297207 C9.93977108,31.297207 9.75904797,31.1802081 9.63856589,30.9462103 C9.51808382,30.7122125 9.33736071,30.5952136 9.1566376,30.4782147 C8.85543241,30.3027163 8.61446827,30.0102191 8.31326308,29.6007229 C9.09639656,29.8932202 9.57832485,30.0687185 9.69880693,30.0687185 C10.0602531,29.0157284 10.1807352,27.4362432 10.1807352,25.3887623 C10.1807352,23.3412815 10.1204942,21.8202957 10.0602531,20.8843045 C9.69880693,20.825805 9.27711967,20.7673056 8.85543241,20.7673056 C8.31326308,20.7673056 7.34940649,20.8843045 6.02410368,21.1183023 C5.54217539,21.1768018 5.2409702,21.2353012 5.2409702,21.2353012 C4.81928295,21.2353012 4.39759569,21.1768018 3.91566739,21.1183023 C3.67470325,21.0598028 3.55422117,21.0013034 3.55422117,20.9428039 C3.55422117,20.825805 3.67470325,20.7088061 3.91566739,20.6503067 C5.90362161,20.2408105 7.77109375,19.9483133 9.45784278,19.8898138 C9.75904797,19.8313143 10.0000121,19.7728149 10.1204942,19.7728149 C10.4216994,19.7728149 10.7831456,19.9483133 11.1445918,20.1823111 Z M6.32530887,26.6172508 C5.90362161,26.6172508 5.54217539,26.6172508 5.12048813,26.6172508 C4.75904191,26.6172508 4.39759569,26.5587514 4.0963905,26.383253 L4.0963905,28.2552355 C4.5783188,27.9627382 5.30121124,27.4362432 6.32530887,26.6172508 Z M11.8072432,32.2916977 C12.1686894,32.4671961 12.4698946,32.7596933 12.7108588,33.11069 C12.9518229,33.4031873 13.072305,33.6956846 13.072305,33.9881818 C13.072305,34.3391785 12.9518229,34.5731763 12.7108588,34.5731763 C12.5903767,34.5731763 12.1686894,34.3391785 11.5662791,33.9296824 C10.0000121,32.8181928 8.61446827,32.0576999 7.40964753,31.5312048 C7.22892442,31.4727054 7.16868338,31.3557065 7.16868338,31.2387076 C7.16868338,31.1217087 7.28916546,31.0632092 7.5301296,31.0632092 C8.13253997,31.0632092 8.91567345,31.2387076 9.75904797,31.5312048 C10.6626635,31.7067032 11.3253149,31.9992004 11.8072432,32.2916977 Z" fill="url(#linearGradient-40)"></path>
                    </g>
                </g>
            </g>
        </g>
    </g>
</svg>